# xmcd
#
# Track frame offsets: 
#        150
#        14415
#        29925
#        42506
#        54719
#        71162
#        87009
#        99620
#        112365
#        127169
#
# Disc length: 1883 seconds
#
# Revision: 1
# Processed by: cddbd v1.5.2PL0 Copyright (c) Steve Scherf et al.
# Submitted via: ExactAudioCopyFreeDBPlugin 1.0
#
DISCID=9c07590a
DTITLE=Janie Frickie - Labor Of Love
DYEAR=1989
DGENRE=Country
TTITLE0=Love Is One Of Those Words
TTITLE1=Give 'Em My Number
TTITLE2=What Are You Doing Here With Me
TTITLE3=The Last Thing That I Didn't Do
TTITLE4=Walking On The Moon
TTITLE5=Feeling Is Believing
TTITLE6=I Can't Help The Way I Don't Feel
TTITLE7=No Ordinary Memory
TTITLE8=One Of Those Things
TTITLE9=My Old Friend The Blues
EXTD=(c) 1989 CBS Records
EXTT0=
EXTT1=
EXTT2=
EXTT3=
EXTT4=
EXTT5=
EXTT6=
EXTT7=
EXTT8=
EXTT9=
PLAYORDER=
